<mxfile host="app.diagrams.net" modified="2023-09-05T19:30:07.059Z" agent="Mozilla/5.0 (Windows NT 10.0; Win64; x64) AppleWebKit/537.36 (KHTML, like Gecko) Chrome/116.0.0.0 Safari/537.36" version="21.6.9" etag="2KJcXxNa4TJhMRjyNN3a" type="github">
  <diagram name="Page-1" id="lSe1L52zdMMxN4C7B2S6">
    <mxGraphModel>
      <root>
        <mxCell id="0" />
        <mxCell id="1" parent="0" />
      </root>
    </mxGraphModel>
  </diagram>
</mxfile>
